<svg width="240" height="64" viewBox="0 0 240 64" fill="none" xmlns="http://www.w3.org/2000/svg">
<path d="M98.3041 36.8783C99.0641 37.9183 99.4641 39.2783 99.4641 40.6783C99.5441 46.8383 96.0241 48.9183 92.2641 48.9183C90.5841 48.9183 88.0641 48.5583 86.3041 46.1583C86.0641 45.8783 85.4641 46.1183 85.7041 46.4383C86.0241 47.0783 86.7041 47.7583 87.5441 48.2383C86.2241 48.9183 83.8641 49.1983 82.0641 49.1983C78.3441 49.1983 75.7841 47.2783 75.1041 44.1583C73.9841 38.7983 73.9441 25.9183 75.1041 20.4783C75.7841 17.3983 77.5841 15.5583 81.0241 15.5583C82.6641 15.5583 85.2641 15.7183 86.3441 16.8383C85.7441 17.3983 85.1441 18.1583 84.8641 19.1983C84.7041 19.5983 85.5041 19.7583 85.7041 19.3983C86.3841 17.2383 88.3041 15.5583 91.5441 15.5583C96.1441 15.5583 98.4641 17.3583 98.7041 21.6783C98.7841 23.3183 98.4641 24.7183 97.7041 25.7583C97.9041 25.7183 98.1041 25.7183 98.3041 25.7183L100.944 25.9583C100.824 23.9983 100.664 21.9983 100.424 20.0783C100.024 16.1183 102.144 14.2383 105.344 14.2383C108.184 14.2383 110.224 15.8383 110.504 19.1183C111.344 27.7583 111.344 37.5183 110.504 46.1983C110.224 49.3983 108.184 50.9983 105.344 50.9983C102.144 50.9983 100.024 49.1583 100.384 45.5583C100.744 42.5983 100.944 39.5983 101.064 36.6383L98.3041 36.8783ZM92.5041 27.4783C93.1841 28.5983 93.1841 33.9983 92.6241 35.3183C93.4641 35.0383 93.6241 34.9183 94.5841 34.9183C95.0641 34.9183 95.5041 34.9983 95.9041 35.1183C95.5441 34.2383 95.3841 32.9983 95.3841 31.3183C95.3841 29.3583 95.6241 27.9983 96.1041 27.0783C95.5441 27.3583 94.8641 27.4783 94.1441 27.4783H92.5041ZM82.0641 27.4783C82.7441 28.5983 82.7441 35.1983 82.1841 36.4783C82.6641 36.1983 83.7441 35.8383 84.7041 35.8383C85.0241 35.8383 85.1841 35.8783 85.4241 35.8783V27.4783H82.0641Z" fill="url(#paint0_linear_1283_158009)"/>
<path d="M144.752 39.0783C144.632 41.4783 144.472 43.8783 144.232 46.1983C143.912 49.3983 141.912 50.9983 139.112 50.9983C135.872 50.9983 133.712 49.1583 134.072 45.5583C135.112 36.9583 135.112 28.3183 134.112 20.0783C133.712 16.1183 135.872 14.2383 139.112 14.2383C141.912 14.2383 143.912 15.8383 144.232 19.1183C144.432 20.9983 144.552 22.8783 144.672 24.8383L145.832 24.7183C147.672 24.3983 148.752 26.5983 148.752 31.9183C148.752 37.2783 147.672 39.4383 145.832 39.2383L144.752 39.0783ZM120.472 34.9983C119.992 35.3183 120.352 36.0383 120.872 35.6783C122.192 34.7183 124.792 33.9183 126.992 33.9183C129.832 33.9183 132.872 35.6383 133.272 39.9983C133.952 47.1983 129.352 49.1983 122.592 49.1983C116.712 49.1983 113.392 47.3583 112.392 41.3183C111.432 35.9983 112.032 25.2383 112.472 19.9183C112.832 16.5583 114.632 15.4383 117.632 15.4383C120.632 15.4383 122.592 16.5583 122.832 19.9583C123.152 23.3583 123.192 32.0783 122.632 33.8383C121.712 34.1583 120.992 34.5583 120.472 34.9983Z" fill="url(#paint1_linear_1283_158009)"/>
<path d="M168.08 19.1183V18.1983C168.08 14.2383 180.92 14.0383 182.12 18.7183C182.8 21.3183 182.76 23.2783 182.12 25.5983C181.52 27.6383 179.24 28.9983 175.84 29.2783C174.8 29.3583 173.8 29.4383 172.8 29.5183C172.88 29.9183 172.92 30.3583 172.92 30.9183C175.48 30.8383 178 30.7583 180.36 30.5983C182.68 30.4383 184.08 31.7583 184.08 33.2383C184.08 35.0783 182.68 35.9183 180.32 36.0383C171.48 36.6783 160.48 36.6783 151.92 36.0383C149.64 35.8783 148.24 35.0783 148.24 33.2383C148.24 31.7583 149.64 30.4383 151.92 30.5983C154.24 30.7583 156.76 30.8783 159.36 30.9583C159.36 30.3983 159.4 29.8783 159.48 29.4783C158.48 29.4383 157.48 29.3583 156.44 29.2783C153.08 28.9983 150.8 27.6383 150.2 25.5983C149.52 23.2783 149.56 21.3183 150.2 18.7183C151.32 14.0783 164.16 14.2383 164.16 18.1983V19.1183C165.64 18.9583 166.68 18.9583 168.08 19.1183ZM162.8 23.1983C162.56 23.5983 162.76 23.8383 163.32 24.1583C165.12 25.1583 167.24 25.1183 169.04 24.1583C169.4 23.9583 169.6 23.7183 169.48 23.2783C169.36 22.9583 168.96 22.7183 168.56 22.9183C167.16 23.7183 165.12 23.6783 163.72 22.8783C163.44 22.7183 162.96 22.8383 162.8 23.1983ZM149.24 47.4383C149.24 45.0783 151.24 43.9583 154.04 43.7183C156.52 43.5183 158.8 43.2383 161.32 42.3583C161.88 42.1583 161.6 41.2383 161.04 41.4383C158.72 42.1983 156.12 42.6783 153.64 42.7983C150.72 42.9983 149.6 41.7183 149.6 39.8783C149.6 38.1983 150.72 37.1583 152.88 37.3183C161.08 37.8783 171.24 37.8783 179.44 37.3183C181.64 37.1583 182.68 37.9183 182.68 39.5183C182.68 40.7983 181.68 41.7583 180.24 41.7983C175.8 41.8783 171.52 43.1583 168.72 45.1183C168.2 45.4383 168.52 46.2383 169.16 45.8783C171.64 44.3983 174.64 43.1183 177.88 43.0383C181.08 42.9183 183 44.2783 183 46.6783C183 49.1983 181.08 50.0783 177.48 50.3183C169.72 50.8383 160.96 50.7583 153.64 50.2783C150.88 50.1183 149.24 49.5583 149.24 47.4383Z" fill="url(#paint2_linear_1283_158009)"/>
<path d="M217.968 39.0783C217.848 41.5183 217.728 43.8783 217.488 46.1983C217.168 49.3983 215.528 50.9983 212.688 50.9983C209.488 50.9983 207.688 49.1583 208.088 45.5583C209.048 36.9583 209.048 28.3183 208.128 20.0783C207.688 16.1183 209.488 14.2383 212.688 14.2383C215.528 14.2383 217.168 15.8383 217.488 19.1183C217.688 20.9983 217.808 22.8783 217.928 24.8383L219.088 24.7183C220.888 24.3983 221.968 26.5983 221.968 31.9183C221.968 37.2783 220.888 39.4383 219.088 39.2383L217.968 39.0783ZM189.568 28.3583C190.328 28.0383 191.328 27.5983 191.928 26.9183C192.328 26.4383 191.768 25.7583 191.408 26.1183C189.808 27.5183 188.648 27.7183 187.368 27.4783C185.088 27.0383 183.808 23.9583 183.848 21.3983C183.888 17.0783 186.488 14.6783 190.328 14.6783C192.848 14.6783 194.688 16.2783 195.448 18.5183C195.568 18.8783 196.368 18.6783 196.248 18.2783C195.928 17.2383 195.408 16.5183 194.768 15.9183C195.848 14.8383 198.848 14.6783 200.448 14.6783C203.928 14.6783 206.328 17.1583 206.768 20.6383C207.488 25.9183 207.168 40.5983 206.448 44.9583C206.048 47.9583 204.768 49.5583 202.808 49.5583C200.808 49.5583 199.608 48.5183 199.208 45.7583C198.768 43.0783 198.888 30.1183 199.208 28.3583C199.888 28.0383 201.288 27.5983 201.848 26.9183C202.248 26.4383 201.688 25.7583 201.288 26.1183C199.968 27.2783 198.408 27.5983 197.368 27.5583C197.568 33.6383 197.088 41.6783 196.568 44.9583C196.128 47.9583 194.888 49.5583 192.888 49.5583C190.928 49.5583 189.648 48.5183 189.248 45.7583C188.848 43.0783 189.328 30.1183 189.568 28.3583Z" fill="url(#paint3_linear_1283_158009)"/>
<rect x="26" y="32" width="40" height="20" rx="10" fill="url(#paint4_linear_1283_158009)"/>
<rect x="18" y="22" width="40" height="20" rx="10" fill="url(#paint5_linear_1283_158009)"/>
<rect x="34" y="12" width="32" height="20" rx="10" fill="url(#paint6_linear_1283_158009)"/>
<defs>
<linearGradient id="paint0_linear_1283_158009" x1="130" y1="-5.00171" x2="179.5" y2="82.4983" gradientUnits="userSpaceOnUse">
<stop stop-color="#5AC8EC"/>
<stop offset="0.695" stop-color="#9EE0F6"/>
<stop offset="1" stop-color="#BBEBFA"/>
</linearGradient>
<linearGradient id="paint1_linear_1283_158009" x1="130" y1="-5.00171" x2="179.5" y2="82.4983" gradientUnits="userSpaceOnUse">
<stop stop-color="#5AC8EC"/>
<stop offset="0.695" stop-color="#9EE0F6"/>
<stop offset="1" stop-color="#BBEBFA"/>
</linearGradient>
<linearGradient id="paint2_linear_1283_158009" x1="130" y1="-5.00171" x2="179.5" y2="82.4983" gradientUnits="userSpaceOnUse">
<stop stop-color="#5AC8EC"/>
<stop offset="0.695" stop-color="#9EE0F6"/>
<stop offset="1" stop-color="#BBEBFA"/>
</linearGradient>
<linearGradient id="paint3_linear_1283_158009" x1="130" y1="-5.00171" x2="179.5" y2="82.4983" gradientUnits="userSpaceOnUse">
<stop stop-color="#5AC8EC"/>
<stop offset="0.695" stop-color="#9EE0F6"/>
<stop offset="1" stop-color="#BBEBFA"/>
</linearGradient>
<linearGradient id="paint4_linear_1283_158009" x1="31" y1="34.5" x2="44.3431" y2="63.4736" gradientUnits="userSpaceOnUse">
<stop stop-color="#5AC8EC"/>
<stop offset="1" stop-color="#C7E7F5"/>
</linearGradient>
<linearGradient id="paint5_linear_1283_158009" x1="23" y1="24.5" x2="36.3431" y2="53.4736" gradientUnits="userSpaceOnUse">
<stop stop-color="#5AC8EC"/>
<stop offset="1" stop-color="#C7E7F5"/>
</linearGradient>
<linearGradient id="paint6_linear_1283_158009" x1="38" y1="14.5" x2="53.1844" y2="40.8774" gradientUnits="userSpaceOnUse">
<stop stop-color="#5AC8EC"/>
<stop offset="1" stop-color="#C7E7F5"/>
</linearGradient>
</defs>
</svg>
