<svg width="48" height="48" viewBox="0 0 48 48" fill="none" xmlns="http://www.w3.org/2000/svg">
<rect width="48" height="48" rx="24" fill="#5AC8EC"/>
<path fill-rule="evenodd" clip-rule="evenodd" d="M32.1901 29.9244C33.5916 28.0529 34.4218 25.7289 34.4218 23.2109C34.4218 17.0193 29.4025 12 23.2109 12C17.0193 12 12 17.0193 12 23.2109C12 29.4025 17.0193 34.4218 23.2109 34.4218C25.7414 34.4218 28.0761 33.5834 29.9523 32.1692L34.1673 36.3842C34.7862 37.0031 35.7897 37.0031 36.4086 36.3842C37.0275 35.7652 37.0275 34.7618 36.4086 34.1429L32.1901 29.9244ZM31.2521 23.2109C31.2521 27.6519 27.6519 31.2521 23.2109 31.2521C18.7699 31.2521 15.1697 27.6519 15.1697 23.2109C15.1697 18.7699 18.7699 15.1697 23.2109 15.1697C27.6519 15.1697 31.2521 18.7699 31.2521 23.2109Z" fill="white"/>
</svg>
