<svg width="48" height="48" viewBox="0 0 48 48" fill="none" xmlns="http://www.w3.org/2000/svg">
<path d="M19.4127 37.5C20.502 38.4335 21.9329 39 23.5 39C25.0671 39 26.498 38.4335 27.5873 37.5M32.7688 18C32.7688 15.6131 31.7922 13.3239 30.054 11.636C28.3158 9.94821 25.9582 9 23.5 9C21.0418 9 18.6842 9.94821 16.946 11.636C15.2078 13.3239 14.2312 15.6131 14.2312 18C14.2312 22.6353 13.027 25.8089 11.6818 27.9081C10.5471 29.6788 9.97975 30.5642 10.0006 30.8111C10.0236 31.0846 10.0833 31.1889 10.3102 31.3524C10.5152 31.5 11.4392 31.5 13.2871 31.5H33.7129C35.5608 31.5 36.4848 31.5 36.6898 31.3524C36.9167 31.1889 36.9764 31.0846 36.9994 30.8111C37.0202 30.5642 36.4529 29.6788 35.3182 27.9081C33.973 25.8089 32.7688 22.6353 32.7688 18Z" stroke="#6F7878" stroke-width="2.5" stroke-linecap="round" stroke-linejoin="round"/>
</svg>
