<svg width="32" height="32" viewBox="0 0 32 32" fill="none" xmlns="http://www.w3.org/2000/svg">
<path fill-rule="evenodd" clip-rule="evenodd" d="M26.335 24.9203C26.7256 25.3109 26.7256 25.944 26.335 26.3346C25.9445 26.7251 25.3113 26.7251 24.9208 26.3346L16.3159 17.7297L7.70711 26.3385C7.31658 26.729 6.68342 26.729 6.29289 26.3385C5.90237 25.9479 5.90237 25.3148 6.29289 24.9242L14.9017 16.3154L6.29337 7.70711C5.90285 7.31658 5.90285 6.68342 6.29337 6.29289C6.6839 5.90237 7.31706 5.90237 7.70758 6.29289L16.3159 14.9012L24.9203 6.2968C25.3109 5.90628 25.944 5.90628 26.3346 6.2968C26.7251 6.68732 26.7251 7.32049 26.3346 7.71101L17.7301 16.3154L26.335 24.9203Z" fill="#6F7878"/>
</svg>
