<svg width="540" height="80" viewBox="0 0 540 80" fill="none" xmlns="http://www.w3.org/2000/svg">
<rect width="540" height="80" rx="40" fill="#FEE500"/>
<g clip-path="url(#clip0_1283_158319)">
<path d="M57.5012 24C47.8343 24 40 30.1628 40 37.7696C40 42.7198 43.3202 47.0565 48.3016 49.4841C47.9346 50.8428 46.9755 54.41 46.7847 55.1721C46.5474 56.1193 47.1321 56.1071 47.5163 55.8539C47.8172 55.6542 52.3118 52.613 54.2496 51.3006C55.3016 51.4564 56.388 51.5392 57.4988 51.5392C67.1632 51.5392 75 45.3764 75 37.772C75 30.1677 67.1657 24 57.5012 24Z" fill="#371C1D"/>
</g>
<path d="M197.217 32.125C197.193 38.3242 195.295 43.8203 187.631 47.5938L186.412 45.9297C190.209 44.0664 192.471 41.8047 193.713 39.1445L186.857 39.7891L186.529 37.8672L194.404 37.3398C194.721 36.2617 194.897 35.125 194.979 33.9297H187.631V32.125H197.217ZM200.428 50.9688V29.9922H202.654V38.3828H205.912V40.2109H202.654V50.9688H200.428ZM217.479 32.125C217.456 38.3242 215.557 43.8203 207.893 47.5938L206.674 45.9297C210.471 44.0664 212.733 41.8047 213.975 39.1445L207.12 39.7891L206.792 37.8672L214.667 37.3398C214.983 36.2617 215.159 35.125 215.241 33.9297H207.893V32.125H217.479ZM220.69 50.9688V29.9922H222.917V38.3828H226.174V40.2109H222.917V50.9688H220.69ZM236.382 31.2578C240.87 31.2695 244.14 33.4844 244.14 36.8359C244.14 39.9766 241.397 42.0742 237.483 42.3906V46.5156H246.038V48.3672H226.819V46.5156H235.28V42.3906C231.39 42.0742 228.636 39.9766 228.647 36.8359C228.636 33.4844 231.917 31.2695 236.382 31.2578ZM230.804 36.8359C230.804 39.1914 233.147 40.6562 236.382 40.6797C239.64 40.6562 241.972 39.1914 241.983 36.8359C241.972 34.5625 239.64 33.0625 236.382 33.0859C233.147 33.0625 230.804 34.5625 230.804 36.8359ZM266.3 46.6094V48.4844H247.082V46.6094H255.542V42.9297H249.425V36.25H261.753V33.2969H249.378V31.4688H263.957V38.0312H251.628V41.1016H264.449V42.9297H257.746V46.6094H266.3ZM280.434 35.3359C280.411 39.168 282.731 43.0352 285.989 44.4766L284.653 46.2344C282.239 45.0859 280.329 42.7305 279.344 39.8594C278.372 42.9414 276.438 45.4727 273.918 46.7031L272.559 44.8281C275.864 43.3633 278.184 39.3438 278.184 35.3359V31.75H280.434V35.3359ZM287.887 51.0391V29.9922H290.114V51.0391H287.887ZM300.321 33.7656C300.31 36.4492 302.173 38.9922 305.384 40.0703L304.259 41.8047C301.88 40.9844 300.134 39.3438 299.22 37.2812C298.306 39.543 296.478 41.3359 294.017 42.2031L292.821 40.4688C296.103 39.3555 298.083 36.6367 298.095 33.7422V33.1797H293.478V31.375H304.845V33.1797H300.321V33.7656ZM295.61 45.4844V43.6797H309.485V50.9922H307.259V45.4844H295.61ZM307.259 42.6484V29.9922H309.485V35.3828H312.532V37.2578H309.485V42.6484H307.259ZM329.607 29.9922V38.5H332.982V40.3516H329.607V50.9922H327.404V29.9922H329.607ZM313.13 35.1016V33.2734H318.31V30.2734H320.537V33.2734H325.576V35.1016H313.13ZM314.208 41.5234C314.208 38.6641 316.412 36.6484 319.435 36.6484C322.447 36.6484 324.65 38.6641 324.662 41.5234C324.65 44.4062 322.447 46.4102 319.435 46.4219C316.412 46.4102 314.208 44.4062 314.208 41.5234ZM316.341 41.5234C316.33 43.3516 317.642 44.5703 319.435 44.5469C321.216 44.5703 322.517 43.3516 322.529 41.5234C322.517 39.7305 321.216 38.4883 319.435 38.4766C317.642 38.4883 316.33 39.7305 316.341 41.5234ZM350.971 29.9922V50.9922H348.721V29.9922H350.971ZM333.721 45.3672C339.299 42.707 342.029 38.9219 342.463 34.0234H334.728V32.2422H344.713C344.713 38.3945 342.1 43.7148 334.893 47.1719L333.721 45.3672Z" fill="#3E4444"/>
<defs>
<clipPath id="clip0_1283_158319">
<rect width="35" height="32" fill="white" transform="translate(40 24)"/>
</clipPath>
</defs>
</svg>
