<svg width="50" height="50" viewBox="0 0 50 50" fill="none" xmlns="http://www.w3.org/2000/svg">
<rect x="1" y="1" width="48" height="48" rx="24" stroke="#DDDDDD" stroke-width="2"/>
<path fill-rule="evenodd" clip-rule="evenodd" d="M26 15.5C26 14.9477 25.5523 14.5 25 14.5C24.4477 14.5 24 14.9477 24 15.5V24H15.5C14.9477 24 14.5 24.4477 14.5 25C14.5 25.5523 14.9477 26 15.5 26H24V34.5C24 35.0523 24.4477 35.5 25 35.5C25.5523 35.5 26 35.0523 26 34.5V26H34.5C35.0523 26 35.5 25.5523 35.5 25C35.5 24.4477 35.0523 24 34.5 24H26V15.5Z" fill="#CCCCCC"/>
</svg>
